<?xml version="1.0" encoding="UTF-8" standalone="no"?>
<!DOCTYPE svg PUBLIC "-//W3C//DTD SVG 1.1//EN" "http://www.w3.org/Graphics/SVG/1.1/DTD/svg11.dtd">
<svg width="100%" height="100%" viewBox="0 0 3000 3000" version="1.1" xmlns="http://www.w3.org/2000/svg" xmlns:xlink="http://www.w3.org/1999/xlink" xml:space="preserve" xmlns:serif="http://www.serif.com/" style="fill-rule:evenodd;clip-rule:evenodd;stroke-linejoin:round;stroke-miterlimit:2;">
    <g transform="matrix(2.77778,0,0,2.77778,-9688.45,-29.7309)">
        <g id="Artboard3" transform="matrix(1,0,0,1,1127.84,10.7031)">
            <rect x="2360" y="0" width="1080" height="1080" style="fill:none;"/>
            <g transform="matrix(1.64019,0,0,1.64019,-1864.39,-347.255)">
                <g transform="matrix(1,0,0,1,-1127.84,-10.7031)">
                    <path d="M4090.12,539.599C4091.67,536.721 4093.61,534.054 4095.96,531.598C4102.88,524.336 4111.82,520.706 4122.79,520.706C4126.73,520.706 4130.29,521.283 4133.47,522.437L4133.47,498.921C4133.47,496.228 4131.98,494.305 4128.99,493.151C4126.01,491.996 4124.52,491.179 4124.52,490.698C4124.52,489.832 4125.58,489.207 4127.69,488.823C4129.04,488.726 4130.44,488.63 4131.88,488.534C4140.05,487.476 4148.76,485.216 4157.99,481.753L4157.99,573.508C4157.99,575.808 4170.78,580.914 4175.03,582.69C4173.62,581.748 4172.25,580.704 4170.92,579.558C4162.94,572.814 4158.95,564.459 4158.95,554.49C4158.95,544.522 4162.89,536.117 4170.78,529.276C4178.28,522.826 4187.03,519.601 4197.03,519.601C4201.59,519.601 4205.88,520.258 4209.91,521.571L4258.56,521.571L4260.73,523.014C4260.73,523.591 4259.86,524.312 4258.13,525.178C4256.4,526.044 4255.53,527.198 4255.53,528.64C4255.53,529.41 4259.77,539.653 4268.23,559.369L4276.74,542.346L4271.4,529.65C4271.02,528.785 4269.84,527.438 4267.87,525.611C4265.9,523.783 4264.91,522.87 4264.91,522.87L4267.36,521.571L4299.97,521.571L4302.71,523.158C4302.71,523.639 4301.84,524.312 4300.11,525.178C4298.38,526.044 4297.52,527.246 4297.52,528.785C4297.52,530.901 4299.29,536.142 4302.85,544.51C4305.07,549.703 4307.32,554.897 4309.63,560.091C4311.65,555.763 4313.72,551.483 4315.84,547.251C4318.15,541.865 4319.3,537.248 4319.3,533.401C4319.3,530.804 4318.63,528.785 4317.28,527.342C4316.51,526.476 4315.38,525.707 4313.89,525.034C4312.4,524.36 4311.65,523.783 4311.65,523.302L4313.82,521.571L4335.89,521.571L4338.49,523.302C4338.49,523.88 4337.62,524.505 4335.89,525.178C4334.83,525.659 4333.73,526.14 4332.57,526.621C4329.4,528.448 4326.7,531.67 4324.49,536.287C4320.16,545.712 4315.84,555.137 4311.51,564.563C4304.1,580.432 4299.68,588.656 4298.24,589.233C4296.7,588.752 4293.23,582.164 4287.85,569.468C4284.77,561.774 4281.65,554.08 4278.47,546.385C4275.11,554.08 4271.69,561.726 4268.23,569.324C4262.36,582.019 4258.76,588.656 4257.41,589.233C4256.64,588.559 4255.77,587.79 4254.81,586.924L4229.85,531.237C4229.65,530.105 4226.68,529.352 4222.82,528.757C4223.02,528.928 4223.23,529.101 4223.43,529.276C4231.22,536.117 4235.12,544.522 4235.12,554.49C4235.12,564.459 4231.18,572.814 4223.29,579.558C4215.79,586.008 4207.03,589.233 4197.03,589.233C4191.02,589.233 4185.45,588.045 4180.33,585.67C4173.2,585.669 4148.46,584.233 4133.47,589.233L4130.89,587.506C4116.71,589.487 4119.71,589.233 4111.82,589.233C4103.07,589.233 4096.39,586.299 4091.77,580.432C4091.18,579.673 4090.63,578.874 4090.12,578.038L4090.12,579.423C4090.12,582.116 4091.51,583.871 4094.3,584.688C4097.09,585.506 4098.49,586.251 4098.49,586.924C4098.49,587.886 4097.96,588.367 4096.9,588.367L4056.08,588.367L4036.42,588.951C4034.91,589.139 4033.37,589.233 4031.79,589.233C4027.58,589.233 4023.14,588.51 4018.86,587.439L4017.84,588.367L3980.9,588.367L3979.32,586.924C3979.32,586.347 3980.52,585.626 3982.92,584.76C3985.33,583.895 3986.53,582.116 3986.53,579.423L3986.53,538.595C3986.53,532.728 3984.27,529.795 3979.75,529.795C3976.48,529.795 3972.87,531.67 3968.93,535.421L3968.93,579.423C3968.93,582.116 3970.13,583.895 3972.54,584.76C3974.94,585.626 3976.14,586.347 3976.14,586.924L3974.55,588.367L3903.46,588.367L3883.8,588.951C3882.29,589.139 3880.75,589.233 3879.17,589.233C3871.64,589.233 3863.39,586.92 3856.56,584.438C3855.68,585.008 3854.69,585.557 3853.59,586.084C3849.16,588.183 3845.08,589.233 3841.32,589.233C3832.86,589.233 3827.76,586.132 3826.03,579.93C3818.34,586.132 3811.08,589.233 3804.25,589.233C3799.63,589.233 3795.74,588.183 3792.56,586.084C3789,583.699 3787.22,580.359 3787.22,576.066C3787.22,571.486 3789.63,567.335 3794.44,563.614C3798.09,560.943 3803.33,558.319 3810.16,555.743C3815.07,554.121 3820.02,552.499 3825.02,550.877L3825.02,530.697C3825.02,526.785 3823.58,524.829 3820.69,524.829C3815.31,524.829 3811.43,524.821 3811.43,530.355C3811.43,531.31 3811.52,532.812 3811.72,534.864C3811.91,536.915 3812,538.37 3812,539.229C3812,542.664 3810.83,545.383 3808.47,547.387C3806.11,549.39 3803.2,550.392 3799.74,550.392C3794.29,550.392 3790.84,548.789 3789.41,545.581L3765.32,600.467C3762.53,606.724 3759.88,611.393 3757.38,614.473C3753.44,619.19 3746.01,621.549 3740.92,621.549C3737.55,621.549 3734.74,620.49 3732.48,618.372C3730.22,616.254 3729.09,613.511 3729.09,610.141C3729.09,607.061 3730.1,604.486 3732.12,602.416C3734.14,600.346 3736.68,599.311 3739.76,599.311C3742.55,599.311 3744.81,600.178 3746.54,601.911C3747.41,602.681 3748.51,604.221 3749.86,606.531C3750.92,608.264 3751.83,609.13 3752.6,609.13C3754.14,609.13 3756.21,606.483 3758.81,601.189C3760.25,597.723 3761.69,594.306 3763.13,590.936L3734.86,530.723C3734.28,529.567 3732.79,528.051 3730.39,526.174C3727.98,524.297 3726.78,523.262 3726.78,523.07L3728.94,521.481L3763.13,521.481C3764.67,521.481 3765.44,521.962 3765.44,522.925C3765.44,523.599 3764.67,524.273 3763.13,524.947C3761.6,525.621 3760.83,526.728 3760.83,528.268C3760.83,529.712 3763.09,535.536 3767.61,545.74C3770.2,551.516 3772.8,557.244 3775.4,562.923C3777.22,558.688 3779.1,554.404 3781.02,550.072C3782.95,544.874 3783.91,540.349 3783.91,536.499C3783.91,531.878 3782.9,527.971 3780.88,525.949C3780.69,525.757 3779.8,525.227 3778.21,524.361C3777.75,524.108 3777.35,523.876 3777.03,523.665C3776.71,523.415 3776.53,523.034 3776.53,522.632C3776.53,522.229 3776.71,521.849 3777.03,521.601C3777.45,521.213 3777.85,520.895 3777.85,520.895L3832.61,520.895L3826.55,521.151C3828.66,521.202 3830.54,521.251 3832.03,521.251C3846.36,521.251 3851.28,527.357 3851.28,539.57L3851.28,553.212C3851.84,554.549 3852.61,556.796 3853.7,560.45C3853.7,560.45 3853.7,560.45 3853.7,560.45C3855.09,565.071 3857.37,569.374 3860.42,573.114C3866.25,580.336 3872.3,584.778 3879.6,584.778C3887.87,584.778 3892.01,583.318 3892.01,576.681C3892.01,572.642 3888.59,569.324 3881.76,566.727C3869.16,562.014 3862.82,559.61 3862.72,559.514C3858.37,557.064 3855.41,553.991 3853.83,550.293C3852.93,548.184 3852.48,545.871 3852.48,543.356C3852.48,536.527 3855.41,530.949 3861.28,526.621C3866.66,522.677 3872.92,520.706 3880.03,520.706C3884.18,520.706 3888.64,521.21 3893.39,522.218C3897.04,522.674 3905.08,524.271 3909.5,525.105C3910.28,525.251 3911.08,525.287 3911.88,525.212C3920.15,524.408 3928.7,522.907 3937.5,520.706L3937.5,525.633C3939.18,525.538 3940.94,525.442 3942.53,525.322C3950.89,524.553 3959.7,523.014 3968.93,520.706L3968.93,530.804C3977.58,524.072 3985.52,520.706 3992.73,520.706C4001.14,520.706 4006.65,524.145 4009.27,531.023C4010.53,529.435 4012.07,527.967 4013.9,526.621C4019.28,522.677 4025.53,520.706 4032.65,520.706C4036.8,520.706 4041.25,521.21 4046.01,522.218C4049.66,522.674 4057.7,524.271 4062.12,525.105C4062.9,525.251 4063.7,525.287 4064.49,525.212C4072.77,524.408 4081.31,522.907 4090.12,520.706L4090.12,539.599ZM4207.42,554.49C4207.42,545.402 4207.18,539.245 4206.7,536.02C4205.26,527.517 4202.03,523.266 4197.03,523.266C4192.13,523.266 4188.95,527.517 4187.51,536.02C4186.93,539.245 4186.65,545.402 4186.65,554.49C4186.65,563.579 4186.93,569.736 4187.51,572.961C4188.95,581.463 4192.13,585.714 4197.03,585.714C4202.03,585.714 4205.26,581.463 4206.7,572.961C4207.18,569.736 4207.42,563.579 4207.42,554.49ZM4056.31,529.103C4059.63,529.971 4062.68,530.827 4063.14,531.237M3903.69,529.103C3907.01,529.971 3910.07,530.827 3910.52,531.237M3937.5,529.667C3939.51,530.209 3941.43,530.773 3941.95,531.237M3825.02,577.211L3825.02,554.025C3817.33,557.079 3813.48,561.849 3813.48,568.337C3813.48,576.257 3815.45,580.216 3819.4,580.216C3821.13,580.216 3823,579.214 3825.02,577.211ZM4133.47,576.97L4133.47,540.326C4133.47,529.073 4130.1,523.447 4123.37,523.447C4117.98,523.447 4114.47,526.957 4112.84,533.978C4112.16,537.248 4111.82,542.875 4111.82,550.858C4111.82,557.686 4112.6,563.601 4114.13,568.602C4116.44,576.297 4120.29,580.144 4125.68,580.144C4128.46,580.144 4131.06,579.086 4133.47,576.97ZM3939.66,497.479C3939.66,501.518 3938.27,504.956 3935.48,507.794C3932.69,510.631 3929.28,512.05 3925.24,512.05C3921.2,512.05 3917.78,510.631 3915,507.794C3912.21,504.956 3910.81,501.518 3910.81,497.479C3910.81,493.439 3912.21,490.001 3915,487.163C3917.78,484.326 3921.2,482.908 3925.24,482.908C3929.28,482.908 3932.69,484.326 3935.48,487.163C3938.27,490.001 3939.66,493.439 3939.66,497.479ZM4092.28,497.479C4092.28,501.518 4090.89,504.956 4088.1,507.794C4085.31,510.631 4081.89,512.05 4077.86,512.05C4073.82,512.05 4070.4,510.631 4067.61,507.794C4064.82,504.956 4063.43,501.518 4063.43,497.479C4063.43,493.439 4064.82,490.001 4067.61,487.163C4070.4,484.326 4073.82,482.908 4077.86,482.908C4081.89,482.908 4085.31,484.326 4088.1,487.163C4090.89,490.001 4092.28,493.439 4092.28,497.479Z" style="fill-rule:nonzero;"/>
                </g>
                <g transform="matrix(1,0,0,1,-1127.84,-10.7031)">
                    <path d="M4065.59,537.873L4065.59,579.423C4065.59,581.9 4053.5,583.584 4049.4,584.474C4050.28,583.941 4051.14,583.363 4051.98,582.741C4058.43,578.028 4061.65,572.017 4061.65,564.707C4061.65,557.975 4058.09,552.589 4050.97,548.549C4049.43,547.684 4042.89,545.135 4031.35,540.903C4024.24,538.306 4020.68,535.373 4020.68,532.103C4020.68,529.314 4021.88,527.102 4024.28,525.466C4026.49,524.12 4029.04,523.447 4031.93,523.447C4037.03,523.447 4041.02,524.793 4043.9,527.486C4045.64,529.217 4047.51,532.271 4049.53,536.647C4051.33,540.544 4052.94,543.354 4054.35,545.077C4054.52,545.272 4054.77,545.385 4055.02,545.39C4055.28,545.395 4055.53,545.291 4055.71,545.104C4056.1,544.6 4056.31,543.98 4056.31,543.211L4056.31,535.223C4056.31,533.793 4056.99,532.448 4058.14,531.6C4059.29,530.751 4060.78,530.501 4062.14,530.924C4062.15,530.927 4062.15,530.928 4062.15,530.929C4062.96,531.18 4063.66,531.702 4064.12,532.405C4065.1,533.885 4065.59,535.705 4065.59,537.873" style="fill:none;fill-rule:nonzero;stroke:white;stroke-width:1px;"/>
                </g>
                <g transform="matrix(1,0,0,1,-1127.84,-10.7031)">
                    <path d="M3942.16,583.868C3941.47,584.335 3940.58,584.352 3939.87,583.912C3938.29,582.947 3937.5,581.451 3937.5,579.423L3937.5,533.626C3937.5,532.718 3937.94,531.867 3938.68,531.341C3939.42,530.816 3940.37,530.681 3941.23,530.981C3941.23,530.983 3941.23,530.985 3941.24,530.986C3941.79,531.181 3942.28,531.533 3942.64,531.999C3943.81,533.545 3944.4,535.5 3944.4,537.873L3944.4,579.423C3944.4,581.394 3943.66,582.876 3942.16,583.868Z" style="fill:none;fill-rule:nonzero;stroke:white;stroke-width:1px;"/>
                </g>
                <g transform="matrix(1,0,0,1,-1127.84,-10.7031)">
                    <path d="M3903.69,543.211L3903.69,529.103L3909.09,530.788C3910.32,531.173 3911.35,532.032 3911.95,533.175C3912.63,534.499 3912.98,536.065 3912.98,537.873" style="fill:none;fill-rule:nonzero;stroke:white;stroke-width:1px;"/>
                </g>
                <g transform="matrix(0.37629,0,0,1,1312.99,-10.6579)">
                    <rect x="3910.93" y="537.199" width="1.635" height="1.181" style="fill:white;"/>
                </g>
                <g transform="matrix(1,0,0,1,-1127.84,-10.7031)">
                    <path d="M3912.98,537.873L3912.98,579.423" style="fill:none;fill-rule:nonzero;stroke:white;stroke-width:1px;"/>
                </g>
                <g transform="matrix(1,0,0,1,-1127.84,-10.7031)">
                    <path d="M3912.98,579.423C3912.98,581.9 3900.88,583.584 3896.78,584.474C3897.66,583.941 3898.52,583.363 3899.37,582.741" style="fill:none;fill-rule:nonzero;stroke:white;stroke-width:1px;"/>
                </g>
                <g transform="matrix(1,0,0,1,-1127.84,-10.7031)">
                    <path d="M3899.37,582.741C3905.81,578.028 3909.03,572.017 3909.03,564.707" style="fill:none;fill-rule:nonzero;stroke:white;stroke-width:1px;"/>
                </g>
                <g transform="matrix(1,0,0,1,-1127.84,-10.7031)">
                    <path d="M3909.03,564.707C3909.03,557.975 3905.47,552.589 3898.36,548.549" style="fill:none;fill-rule:nonzero;stroke:white;stroke-width:1px;"/>
                </g>
                <g transform="matrix(1,0,0,1,-1127.84,-10.7031)">
                    <path d="M3898.36,548.549C3896.82,547.684 3890.28,545.135 3878.74,540.903" style="fill:none;fill-rule:nonzero;stroke:white;stroke-width:1px;"/>
                </g>
                <g transform="matrix(1,0,0,1,-1127.84,-10.7031)">
                    <path d="M3878.74,540.903C3871.62,538.306 3868.06,535.373 3868.06,532.103" style="fill:none;fill-rule:nonzero;stroke:white;stroke-width:1px;"/>
                </g>
                <g transform="matrix(1,0,0,1,-1127.84,-10.7031)">
                    <path d="M3868.06,532.103C3868.06,529.314 3869.26,527.102 3871.67,525.466" style="fill:none;fill-rule:nonzero;stroke:white;stroke-width:1px;"/>
                </g>
                <g transform="matrix(1,0,0,1,-1127.84,-10.7031)">
                    <path d="M3871.67,525.466C3873.88,524.12 3876.43,523.447 3879.31,523.447" style="fill:none;fill-rule:nonzero;stroke:white;stroke-width:1px;"/>
                </g>
                <g transform="matrix(1,0,0,1,-1127.84,-10.7031)">
                    <path d="M3879.31,523.447C3884.41,523.447 3888.4,524.793 3891.29,527.486" style="fill:none;fill-rule:nonzero;stroke:white;stroke-width:1px;"/>
                </g>
                <g transform="matrix(1,0,0,1,-1127.84,-10.7031)">
                    <path d="M3891.29,527.486C3893.02,529.217 3894.89,532.271 3896.91,536.647" style="fill:none;fill-rule:nonzero;stroke:white;stroke-width:1px;"/>
                </g>
                <g transform="matrix(1,0,0,1,-1127.84,-10.7031)">
                    <path d="M3896.91,536.647C3898.71,540.544 3900.32,543.354 3901.74,545.077C3901.91,545.272 3902.15,545.385 3902.41,545.39C3902.66,545.395 3902.91,545.291 3903.09,545.104C3903.48,544.6 3903.69,543.98 3903.69,543.211" style="fill:none;fill-rule:nonzero;stroke:white;stroke-width:1px;"/>
                </g>
                <g transform="matrix(4.37513,0,0,1.28716,-9811.8,-175.389)">
                    <rect x="2845.83" y="582.607" width="112.15" height="3.467"/>
                </g>
                <g transform="matrix(1,0,0,1,-1127.84,-10.7031)">
                    <path d="M4011.01,556.159C4011.01,556.159 4011.73,556.732 4012.57,557.401C4014.26,558.739 4016.21,559.695 4018.3,560.201C4026.97,562.361 4050.2,569.371 4044.07,580.9C4043.89,581.223 4043.68,581.522 4043.43,581.791C4042.04,583.131 4037.43,586.51 4027.15,584.167C4005.59,579.254 4011.01,556.159 4011.01,556.159Z" style="fill:none;stroke:white;stroke-width:1.5px;stroke-linecap:round;stroke-miterlimit:1.5;"/>
                </g>
                <g transform="matrix(1,0,0,1,-1127.84,-10.7031)">
                    <rect x="3903.53" y="542.778" width="0.596" height="0.892" style="fill:white;"/>
                </g>
                <g transform="matrix(1.32643,0.108012,-0.108012,1.32643,-2343.6,-609.709)">
                    <path d="M3904.19,543.203L3904.06,543.186L3904.06,543.28L3904.19,543.214L3904.19,543.203Z" style="fill:white;"/>
                </g>
            </g>
        </g>
    </g>
</svg>
